<?xml version="1.0" encoding="UTF-8"?>
<svg width="17px" height="11px" viewBox="0 0 17 11" version="1.1" xmlns="http://www.w3.org/2000/svg" xmlns:xlink="http://www.w3.org/1999/xlink">
    <title>icon/halfkejian</title>
    <g id="Fiber-Tracking交互说明" stroke="none" stroke-width="1" fill="none" fill-rule="evenodd">
        <g id="4.种子点列表交互说明" transform="translate(-428.000000, -1341.000000)">
            <g id="icon/halfkejian" transform="translate(422.000000, 1332.000000)">
                <rect id="矩形" x="0" y="0" width="30" height="30"></rect>
                <path d="M14.5,9 C20.3789763,9 23,14.0668094 23,14.5 C23,15.014473 20.4168971,20 14.5,20 C8.58312363,20 6,15.014473 6,14.5 C6,14.0668094 8.62106523,9 14.5,9 Z M16.6418901,13.6188477 L16.6477704,13.6306312 C16.7657228,13.8978403 16.830948,14.1916215 16.830948,14.4999996 L16.830948,14.4999996 L16.8255704,14.6529172 C16.743558,15.8151084 15.7337067,16.7334737 14.5,16.7334737 C13.2126518,16.7334737 12.169052,15.7335123 12.169052,14.4999997 L12.169052,14.4999997 L12.1744296,14.3470824 C12.1925306,14.0905753 12.2558294,13.8459455 12.3567572,13.6204453 C11.8173102,13.764915 11.2496314,13.9623969 10.6550734,14.2112932 C10.6454419,14.3073128 10.6415233,14.4032201 10.6415233,14.5 C10.6415233,16.5320388 12.3690191,18.1793452 14.5,18.1793452 C16.6309809,18.1793452 18.3585182,16.5320388 18.3585182,14.5 C18.3585182,14.4032201 18.3545996,14.3073128 18.3469054,14.2124144 C17.7503686,13.9623969 17.1826898,13.764915 16.6418901,13.6188477 Z" id="形状结合" fill="#C9D3E6"></path>
            </g>
        </g>
    </g>
</svg>